<?xml version="1.0" standalone="no"?>
<!DOCTYPE svg PUBLIC "-//W3C//DTD SVG 20010904//EN"
 "http://www.w3.org/TR/2001/REC-SVG-20010904/DTD/svg10.dtd">
<svg version="1.0" xmlns="http://www.w3.org/2000/svg"
 width="512.000000pt" height="512.000000pt" viewBox="0 0 512.000000 512.000000"
 preserveAspectRatio="xMidYMid meet">

<g transform="translate(0.000000,512.000000) scale(0.100000,-0.100000)"
fill="#000000" stroke="none">
<path d="M2873 4909 c-55 -27 -252 -215 -333 -318 l-63 -81 -32 48 c-58 85
-165 176 -267 226 -304 149 -595 68 -700 -194 -17 -43 -22 -75 -22 -150 0 -75
5 -107 22 -150 61 -152 196 -253 356 -266 99 -9 164 39 173 127 7 76 -59 149
-137 149 -103 0 -173 121 -120 208 34 55 75 74 150 68 167 -12 311 -123 364
-279 25 -75 22 -104 -28 -222 -57 -138 -57 -145 -8 -145 50 0 160 -24 254 -56
l78 -26 78 26 c122 40 199 55 319 62 l111 7 22 96 c28 121 78 264 141 407 27
62 49 119 49 128 0 42 -39 98 -142 205 -107 111 -159 150 -203 151 -11 0 -39
-9 -62 -21z"/>
<path d="M1067 3650 c-543 -98 -963 -680 -1036 -1434 -56 -577 121 -1176 454
-1533 140 -151 302 -255 482 -310 76 -22 107 -26 223 -27 161 -1 248 17 377
79 l87 41 75 -38 c125 -62 213 -81 376 -81 160 0 246 18 377 80 l78 36 81 -37
c137 -63 214 -79 374 -79 162 0 248 18 377 81 l77 38 65 -33 c36 -18 105 -45
153 -59 78 -24 105 -27 233 -27 129 0 155 2 233 26 314 96 571 339 746 708
309 649 256 1493 -130 2069 -72 108 -234 277 -324 337 -89 60 -193 109 -292
140 -78 23 -104 26 -233 26 -129 0 -155 -3 -234 -27 -49 -15 -118 -41 -153
-59 l-65 -32 -77 37 c-128 63 -214 81 -376 81 -160 0 -237 -16 -374 -79 l-81
-37 -78 36 c-131 62 -217 80 -377 80 -163 0 -251 -19 -377 -82 l-77 -38 -38
21 c-51 29 -135 62 -208 81 -71 19 -270 28 -338 15z"/>
</g>
</svg>
